<?xml version="1.0" encoding="UTF-8"?>
<svg id="Primary_Color" xmlns="http://www.w3.org/2000/svg" viewBox="0 0 900 160.02">
  <defs>
    <style>
      .cls-1 {
        fill: #231f20;
      }

      .cls-2 {
        fill: #fac800;
      }

      .cls-3 {
        fill: none;
        stroke: #bbb;
        stroke-miterlimit: 10;
        stroke-width: 3px;
      }

      .cls-4 {
        fill: #32006e;
      }
    </style>
  </defs>
  <g id="UW_Logo">
    <path class="cls-4" d="M109.78,42.23v13.69h9.71l-10.84,39.98s-13.26-52.93-13.44-53.68h-14.02c-.2.73-14.55,53.68-14.55,53.68l-9.98-39.98h10.1v-13.69H26.22v13.69h8.98s15.5,61.47,15.69,62.22h21.76c.19-.73,10.38-39.15,10.38-39.15,0,0,9.69,38.41,9.87,39.15h21.76c.2-.73,16.51-62.22,16.51-62.22h8.91v-13.69h-30.3Z"/>
    <path class="cls-1" d="M179.09,60.74c0,4.13,3.44,7.27,7.67,7.27s8.01-3.01,8.01-7.27v-16.22l2.09-2.17h-6.45l2.14,2.17v16.2c0,2.89-2.26,5.18-5.11,5.18s-5.45-2.26-5.45-5.18v-16.2l2.14-2.17h-7.16l2.14,2.17v16.2l-.02.02ZM207.96,65.28v-18.8l13.32,21h.8v-22.97l2.14-2.17h-6.45l2.14,2.17v15.94l-11.15-18.11h-5.11l2.09,2.17v20.75l-2.09,2.17h6.45l-2.14-2.17v.02ZM232.02,42.35l1.97,2v21.09l-1.97,2h6.67l-1.97-2v-21.09l1.97-2h-6.67ZM252.26,42.35h-6.99l2.02,2,6.96,23.09h1.26l7.16-23.09,2.02-2h-5.95l1.93,1.96-5.24,17.35-5.07-17.35,1.93-1.96h-.02ZM285.35,67.45v-4.6l-2.65,2.72h-7.5v-10.55h5.58l1.97,2v-5.87l-1.97,2h-5.58v-8.92h7.5l2.65,2.69v-4.56h-14.79l1.93,2v21.09l-1.93,2h14.79v.02ZM297.52,65.46v-9.69h3.73l5.99,11.69h4.11l-1.93-2-5.53-10.3c2.77-.84,4.65-3.49,4.65-5.87,0-4.25-3.9-6.94-8.01-6.94h-7.67l1.93,2v21.09l-1.93,2h6.62l-1.97-2,.02.02ZM297.52,44.23h3.02c2.65,0,4.73,2.29,4.73,5.01s-2.14,4.63-4.73,4.63h-3.02v-9.64ZM330.33,60.48c0-2.46-1.14-3.99-2.31-4.8l-5.02-3.7c-1.8-1.31-2.73-3.01-2.73-4.3,0-2.63,2.22-3.56,3.56-3.56.71,0,1.22.29,1.59.29l2.19,2.38,2.31-3.49-4.9-.93c-.34-.09-.54-.12-1.17-.12-4.31,0-6.28,3.74-6.28,6.16,0,1.91.97,4.08,3.19,5.73l5.07,3.7c1.39.98,1.76,2.43,1.76,3.65,0,2.13-1.31,4.42-4.11,4.42-.66,0-1.26-.14-1.71-.34l-2.34-2.81-2.14,3.91,4.73.93s.8.17,1.46.17c2.97,0,6.87-2.55,6.87-7.32M338.54,42.35l1.97,2v21.09l-1.97,2h6.67l-1.97-2v-21.09l1.97-2h-6.67ZM362,65.46v-21.23h4.7l2.65,2.69v-4.56h-17.39v4.54l2.68-2.69h4.65v21.23l-1.93,2h6.62l-1.97-2v.02ZM376.08,44.35l6.24,11.45v9.66l-1.97,2h6.67l-1.97-2v-9.66l6.36-11.4,2.05-2.05h-6.12l1.93,1.96-5.19,9.4-4.95-9.4,1.93-1.96h-7.01l2.02,2ZM413.61,51.62c-.9,0-2.32.43-3.75,1.27-2.39,1.45-5,4.72-5,9.66,0,2.46,1.15,5.22,4.38,5.22,1.53,0,3.72-1.02,5.17-2.36,2.29-2.12,3.65-5.75,3.65-8.88,0-2.93-1.53-4.91-4.44-4.91M407.67,61.69c0-5.22,2.61-8.04,3.68-8.49.31-.14.8-.28,1.15-.28,1.73,0,2.75,1.34,2.75,4.05.07,4.58-2.29,8.75-3.75,9.23-.27.1-.73.24-1.07.24-1.95,0-2.75-2.12-2.75-4.75M423.28,52.46l-.93.91.1.36h2.88c-.46,3.17-.87,5.92-1.53,10.36-.93,6.59-1.73,8.92-2.39,9.49-.2.21-.56.31-.87.31-.42,0-1.07-.31-1.53-.53-.42-.21-.76.03-.97.24-.27.33-.59.81-.59,1.21,0,.71.9,1.05,1.49,1.05.66,0,2.32-.57,3.82-2.43,1.19-1.48,2.78-4.91,4.14-12.86.24-1.48.53-2.96,1.12-6.83l3.55-.36.76-.91h-4.11c1.03-6.52,1.92-8.49,3.41-8.49,1.03,0,1.9.43,2.68,1.17.24.24.63.24.97-.03.27-.24.7-.81.7-1.31.03-.71-.9-1.48-2.09-1.48-2.02,0-4.14,1.21-5.6,2.96-1.36,1.65-2.26,4.34-2.75,7.2h-2.26l-.02-.02Z"/>
    <path class="cls-1" d="M163.28,119.77l7.6-24.41,7.38,24.41h1.7l9.64-31.04,2.7-2.69h-7.99l2.6,2.63-7.04,23.33-6.82-23.33,2.6-2.63h-9.4l2.65,2.69.68,2.22-6.36,21.04-6.82-23.33,2.6-2.63h-9.4l2.7,2.69,9.35,31.04h1.7l-.03.02ZM196.31,117.16l2.43-7.14h10.98l2.31,7.14-2.6,2.63h9.42l-2.65-2.74-10.37-30.97h-1.7l-10.54,30.97-2.7,2.74h7.99l-2.6-2.63h.02ZM204.31,93.54l4.56,13.94h-9.3l4.73-13.94ZM240.65,110.41c0-3.32-1.53-5.37-3.1-6.46l-6.75-4.98c-2.43-1.77-3.66-4.06-3.66-5.77,0-3.55,2.99-4.8,4.78-4.8.95,0,1.63.4,2.14.4l2.93,3.2,3.1-4.68-6.58-1.26c-.44-.12-.73-.17-1.58-.17-5.8,0-8.45,5.03-8.45,8.28,0,2.57,1.29,5.49,4.28,7.71l6.82,4.98c1.87,1.31,2.36,3.25,2.36,4.92,0,2.86-1.75,5.94-5.51,5.94-.9,0-1.7-.17-2.31-.46l-3.16-3.77-2.87,5.25,6.36,1.26s1.07.22,1.97.22c4,0,9.25-3.43,9.25-9.83M254.78,102.87h13.96v14.24l-2.65,2.69h8.96l-2.65-2.69v-28.35l2.65-2.69h-8.96l2.65,2.69v11.6h-13.96v-11.6l2.65-2.69h-8.91l2.6,2.69v28.35l-2.6,2.69h8.91l-2.65-2.69v-14.24ZM307.88,116.86v-25.26l17.68,28.17h1.31v-30.8l2.87-2.91h-8.67l2.87,2.91v21.43l-14.98-24.34h-6.87l2.82,2.91v27.89l-2.82,2.91h8.67l-2.87-2.91ZM355.33,104.47v10.86c-.78.79-2.36,2.39-5.46,2.39-7.38,0-11.09-7.54-11.09-14.81s4.67-14.81,11.09-14.81c1.7,0,2.92.4,4.05,1.6l3.66,3.65v-5.84c-1.97-1.03-3.94-1.95-7.72-1.95-9.08,0-15.44,8.23-15.44,17.32s6.36,17.32,15.44,17.32c5.12,0,7.31-1.26,9.13-2.46v-13.33l2.6-2.69h-8.91l2.65,2.69v.03ZM379.56,117.09v-28.53h6.31l3.55,3.6v-6.11h-23.38v6.11l3.61-3.6h6.24v28.53l-2.6,2.69h8.91l-2.65-2.69ZM392.76,102.92c0,8.57,4.78,17.59,13.28,17.59s13.35-9.04,13.35-17.59-4.78-17.61-13.35-17.61-13.28,9.04-13.28,17.61M406.06,117.95c-6.65,0-8.96-8.06-8.96-15.03s2.31-15.03,8.96-15.03,9.01,8.06,9.01,15.03-2.31,15.03-9.01,15.03M431.35,116.86v-25.26l17.59,28.2h1.39v-30.83l2.87-2.91h-8.67l2.87,2.91v21.43l-14.98-24.34h-6.87l2.82,2.91v27.89l-2.82,2.91h8.67l-2.87-2.91ZM292.97,86.06l-2.65,2.69v28.34l2.65,2.69h-8.96l2.65-2.69v-28.34l-2.65-2.69h8.96Z"/>
  </g>
  <g>
    <path class="cls-1" d="M552.47,33.42c0-4.87,4.62-7.39,9.2-7.39,3.39,0,6.74,1.3,8.22,4.07l-1.26.65c-1.26-2.31-4.15-3.32-7.03-3.32-3.86,0-7.72,1.98-7.72,5.99v11.36c0,4.08,3.89,6.06,7.79,6.06s7.83-1.98,7.83-6.06v-3.9h-7.83v-1.41h9.23v5.3c0,5.01-4.62,7.5-9.23,7.5s-9.2-2.49-9.2-7.5v-11.36Z"/>
    <polygon class="cls-1" points="576.49 51.92 576.49 26.39 577.9 26.39 577.9 50.52 590.66 50.52 590.66 51.92 576.49 51.92"/>
    <path class="cls-1" d="M594.7,44.78c0,4.08,4.15,6.1,8.33,6.1s8.37-2.02,8.37-6.1v-11.29c0-4.29-4.22-6.1-8.4-6.1-4.15.04-8.3,1.88-8.3,6.1v11.29ZM593.3,33.49c0-4.98,4.87-7.47,9.74-7.47s9.77,2.49,9.77,7.47v11.29c0,4.98-4.91,7.5-9.77,7.5s-9.74-2.52-9.74-7.5v-11.29Z"/>
    <path class="cls-1" d="M628.57,50.55c3.93.07,6.74-1.26,6.74-5.59s-2.6-5.95-6.74-5.92h-8.19v11.51h8.19ZM628.57,37.78c3.21,0,5.59-1.55,5.59-5.05s-2.49-5.05-5.59-5.05h-8.19v10.1h8.19ZM628.53,51.96h-9.56v-25.57h9.59c3.79,0,6.92,2.24,6.92,6.31,0,2.56-.47,4.11-3.64,5.66,4.44,1.3,4.91,3.75,4.87,6.64-.11,5.12-3.61,6.96-8.19,6.96"/>
    <path class="cls-1" d="M644.4,41.64h10.46l-5.23-14.21-5.23,14.21ZM660.05,51.92h-1.51l-3.21-8.87h-11.43l-3.1,8.87h-1.51l9.34-25.54h2.06l9.38,25.54Z"/>
    <polygon class="cls-1" points="664.24 51.92 664.24 26.39 665.64 26.39 665.64 50.52 678.41 50.52 678.41 51.92 664.24 51.92"/>
    <rect class="cls-1" x="552.61" y="67.08" width="2.99" height="25.54"/>
    <polygon class="cls-1" points="577.86 67.08 580.89 67.08 580.89 92.61 577.07 92.61 564.52 72.38 564.52 92.61 561.49 92.61 561.49 67.08 564.73 67.08 577.86 88.18 577.86 67.08"/>
    <polygon class="cls-1" points="603.14 67.08 606.17 67.08 606.17 92.61 602.35 92.61 589.8 72.38 589.8 92.61 586.77 92.61 586.77 67.08 590.01 67.08 603.14 88.18 603.14 67.08"/>
    <path class="cls-1" d="M614.29,84.89c0,3.35,3.57,5.05,7.21,5.05s7.21-1.69,7.21-5.05v-10.17c0-3.53-3.64-5.05-7.25-5.05-3.61.04-7.18,1.59-7.18,5.05v10.17ZM611.29,74.72c0-5.34,5.09-8.01,10.21-8.01s10.21,2.67,10.21,8.01v10.21c0,5.34-5.12,8.04-10.21,8.04s-10.21-2.71-10.21-8.04v-10.21Z"/>
    <polygon class="cls-1" points="636.93 67.08 644.8 89.19 652.62 67.08 655.8 67.08 646.64 92.61 642.92 92.61 633.72 67.08 636.93 67.08"/>
    <path class="cls-1" d="M669.32,81.4c-1.41-3.93-2.45-7-3.89-11.07-1.3,3.75-2.52,7.25-3.9,11.07h7.79ZM676.5,92.61h-3.17l-2.96-8.19h-9.85c-.94,2.67-1.98,5.52-2.89,8.19h-3.21l9.16-25.54h3.68l9.23,25.54Z"/>
    <polygon class="cls-1" points="686.13 70.11 686.13 92.61 683.1 92.61 683.1 70.11 674.91 70.11 674.91 67.08 694.31 67.08 694.31 70.11 686.13 70.11"/>
    <rect class="cls-1" x="698.03" y="67.08" width="2.99" height="25.54"/>
    <path class="cls-1" d="M709.14,84.89c0,3.35,3.57,5.05,7.21,5.05s7.21-1.69,7.21-5.05v-10.17c0-3.53-3.64-5.05-7.25-5.05-3.61.04-7.18,1.59-7.18,5.05v10.17ZM706.14,74.72c0-5.34,5.09-8.01,10.21-8.01s10.21,2.67,10.21,8.01v10.21c0,5.34-5.12,8.04-10.21,8.04s-10.21-2.71-10.21-8.04v-10.21Z"/>
    <polygon class="cls-1" points="748.09 67.08 751.12 67.08 751.12 92.61 747.29 92.61 734.74 72.38 734.74 92.61 731.71 92.61 731.71 67.08 734.96 67.08 748.09 88.18 748.09 67.08"/>
    <polygon class="cls-1" points="554.49 119.81 567.44 119.81 567.44 121.26 554.49 121.26 554.49 131.9 568.52 131.9 568.52 133.3 553.08 133.3 553.08 107.77 568.52 107.77 568.52 109.17 554.49 109.17 554.49 119.81"/>
    <polygon class="cls-1" points="590.19 133.3 588.5 133.3 580.89 121.58 573.24 133.3 571.55 133.3 580.06 120.57 571.62 107.8 573.21 107.8 580.89 119.34 588.5 107.8 590.16 107.8 581.72 120.57 590.19 133.3"/>
    <path class="cls-1" d="M592.97,114.8c0-4.87,4.69-7.39,9.31-7.39,3.39,0,6.78,1.26,8.26,4.04l-1.26.65c-1.3-2.16-4.22-3.28-7.1-3.28-3.86,0-7.79,1.98-7.79,5.99v11.47c0,4,3.93,5.99,7.79,5.99,2.85,0,5.81-1.12,7.14-3.28l1.23.61c-1.48,2.74-4.94,4.08-8.37,4.08-4.55,0-9.2-2.49-9.2-7.39v-11.47Z"/>
    <polygon class="cls-1" points="616.77 133.3 615.37 133.3 615.37 107.77 616.77 107.77 616.77 119.85 632.39 119.85 632.39 107.77 633.8 107.77 633.8 133.3 632.39 133.3 632.39 121.26 616.77 121.26 616.77 133.3"/>
    <path class="cls-1" d="M643.1,123.02h10.46l-5.23-14.21-5.23,14.21ZM658.75,133.3h-1.51l-3.21-8.87h-11.43l-3.1,8.87h-1.51l9.34-25.54h2.06l9.38,25.54Z"/>
    <polygon class="cls-1" points="679.49 131.53 679.49 107.77 680.9 107.77 680.9 133.3 678.84 133.3 664.34 109.93 664.34 133.3 662.94 133.3 662.94 107.77 664.7 107.77 679.49 131.53"/>
    <path class="cls-1" d="M687.1,114.8c0-4.87,4.62-7.39,9.2-7.39,3.39,0,6.74,1.3,8.22,4.07l-1.26.65c-1.26-2.31-4.15-3.32-7.03-3.32-3.86,0-7.72,1.98-7.72,5.99v11.36c0,4.08,3.89,6.06,7.79,6.06s7.83-1.98,7.83-6.06v-3.9h-7.83v-1.41h9.23v5.3c0,5.01-4.62,7.5-9.23,7.5s-9.2-2.49-9.2-7.5v-11.36Z"/>
    <polygon class="cls-1" points="712.53 119.81 725.48 119.81 725.48 121.26 712.53 121.26 712.53 131.9 726.56 131.9 726.56 133.3 711.12 133.3 711.12 107.77 726.56 107.77 726.56 109.17 712.53 109.17 712.53 119.81"/>
    <polygon class="cls-2" points="873.72 45.06 830.67 45.05 821.18 55.69 794.8 26.04 751.04 26.03 799.51 80.01 751.72 133.65 794.76 133.66 821.12 104.08 830.65 114.68 873.69 114.7 842.7 79.87 873.72 45.06"/>
  </g>
  <line class="cls-3" x1="502.9" y1="26.16" x2="502.9" y2="133.66"/>
</svg>